<svg width="109" height="123" viewBox="0 0 109 123" fill="none" xmlns="http://www.w3.org/2000/svg">
<circle cx="54" cy="61" r="50" fill="url(#paint0_linear_172_1241)"/>
<circle cx="54" cy="61" r="46" fill="#022446"/>
<circle cx="54" cy="61" r="42" fill="#D7D7D7"/>
<circle cx="54" cy="61" r="38" fill="black"/>
<path d="M16 106.5L20.188 93.5001L10.3923 83.0001L16 106.5Z" fill="url(#paint1_linear_172_1241)"/>
<path d="M57.1696 88.7555L57.0263 103.91L61.3177 103.332L57.1696 88.7555Z" fill="#022446"/>
<path d="M26.3691 66.0302L11.2144 65.887L11.7924 70.1783L26.3691 66.0302Z" fill="#022446"/>
<path d="M30.4194 46.1156L19.8047 35.2983L17.179 38.7415L30.4194 46.1156Z" fill="#022446"/>
<path d="M49.8275 33.2478L49.9708 18.093L45.6794 18.6711L49.8275 33.2478Z" fill="#022446"/>
<path d="M80.8859 57.8216L96.0406 57.9649L95.4626 53.6735L80.8859 57.8216Z" fill="#022446"/>
<path d="M76.2904 77.8825L86.9052 88.6998L89.5309 85.2566L76.2904 77.8825Z" fill="#022446"/>
<path d="M98.4875 10.3005L65.4712 70.8164L65.4218 70.9078L65.3397 70.9713L10.9793 113.365L10.2334 112.731L43.2497 52.2154L43.299 52.1241L43.3812 52.0605L97.7416 9.6672L98.4875 10.3005Z" fill="black" stroke="black"/>
<path d="M95.6073 12.8773L54.1843 61.6639L64.0941 70.0779L95.6073 12.8773Z" fill="#025299"/>
<path d="M54.19 61.7341L64.0156 70.0767L13.1197 110.105L54.19 61.7341Z" fill="#052342" stroke="black" stroke-width="0.1"/>
<path d="M44.4229 53.7866L95.7557 13.4141L12.9097 110.987L44.4229 53.7866Z" fill="url(#paint2_linear_172_1241)"/>
<g filter="url(#filter0_d_172_1241)">
<circle cx="54" cy="61" r="9" fill="#848C9C" fill-opacity="0.2" shape-rendering="crispEdges"/>
</g>
<circle cx="54" cy="61" r="7" fill="#D7D7D7"/>
<circle cx="54" cy="61" r="5" fill="white"/>
<path d="M18.4999 107.856L28.4999 100.5L41.7244 107.856L30.1122 107.856L18.4999 107.856Z" fill="url(#paint3_linear_172_1241)"/>
<path d="M99 11.5L96.5 21.5L92.8366 35.4873L88.5 29.5L99 11.5Z" fill="url(#paint4_linear_172_1241)"/>
<path d="M99.5 22.5L97 42.5L91 32.5L99.5 22.5Z" fill="url(#paint5_linear_172_1241)"/>
<path d="M106 0.5L96 11.5L81 22L77 19.5L106 0.5Z" fill="url(#paint6_linear_172_1241)"/>
<path d="M89.5 5.5L80 21L68.5 15L89.5 5.5Z" fill="url(#paint7_linear_172_1241)"/>
<defs>
<filter id="filter0_d_172_1241" x="39" y="46" width="30" height="30" filterUnits="userSpaceOnUse" color-interpolation-filters="sRGB">
<feFlood flood-opacity="0" result="BackgroundImageFix"/>
<feColorMatrix in="SourceAlpha" type="matrix" values="0 0 0 0 0 0 0 0 0 0 0 0 0 0 0 0 0 0 127 0" result="hardAlpha"/>
<feMorphology radius="2" operator="dilate" in="SourceAlpha" result="effect1_dropShadow_172_1241"/>
<feOffset/>
<feGaussianBlur stdDeviation="2"/>
<feComposite in2="hardAlpha" operator="out"/>
<feColorMatrix type="matrix" values="0 0 0 0 0 0 0 0 0 0 0 0 0 0 0 0 0 0 0.25 0"/>
<feBlend mode="normal" in2="BackgroundImageFix" result="effect1_dropShadow_172_1241"/>
<feBlend mode="normal" in="SourceGraphic" in2="effect1_dropShadow_172_1241" result="shape"/>
</filter>
<linearGradient id="paint0_linear_172_1241" x1="46.4952" y1="11" x2="61.5048" y2="111" gradientUnits="userSpaceOnUse">
<stop stop-color="#05B8E6"/>
<stop offset="1" stop-color="#0B59A0"/>
</linearGradient>
<linearGradient id="paint1_linear_172_1241" x1="10.2359" y1="82.0113" x2="7.43435" y2="106.572" gradientUnits="userSpaceOnUse">
<stop stop-color="#087FBC"/>
<stop offset="1" stop-color="#0A6DAE"/>
</linearGradient>
<linearGradient id="paint2_linear_172_1241" x1="90.8008" y1="9.20703" x2="7.95481" y2="106.78" gradientUnits="userSpaceOnUse">
<stop stop-color="#18A4C9"/>
<stop offset="1" stop-color="#64D1F8"/>
</linearGradient>
<linearGradient id="paint3_linear_172_1241" x1="17.2778" y1="109.518" x2="38.6407" y2="117.461" gradientUnits="userSpaceOnUse">
<stop stop-color="#0A65A9"/>
<stop offset="1" stop-color="#0B5DA3"/>
</linearGradient>
<linearGradient id="paint4_linear_172_1241" x1="101.825" y1="16.1195" x2="88.4433" y2="32.7314" gradientUnits="userSpaceOnUse">
<stop stop-color="#06ABDD"/>
<stop offset="1" stop-color="#079CD1"/>
</linearGradient>
<linearGradient id="paint5_linear_172_1241" x1="96" y1="18.5" x2="96" y2="39.25" gradientUnits="userSpaceOnUse">
<stop stop-color="#069ED3"/>
<stop offset="1" stop-color="#0796CD"/>
</linearGradient>
<linearGradient id="paint6_linear_172_1241" x1="90.25" y1="3.99999" x2="90.25" y2="22" gradientUnits="userSpaceOnUse">
<stop stop-color="#05B0E0"/>
<stop offset="1" stop-color="#06ABDC"/>
</linearGradient>
<linearGradient id="paint7_linear_172_1241" x1="79.5" y1="12" x2="79.5" y2="20.5" gradientUnits="userSpaceOnUse">
<stop stop-color="#05AEDF"/>
<stop offset="1" stop-color="#05AFDF"/>
</linearGradient>
</defs>
</svg>
